<mxfile host="app.diagrams.net" agent="Mozilla/5.0 (Windows NT 10.0; Win64; x64) AppleWebKit/537.36 (KHTML, like Gecko) Chrome/135.0.0.0 Safari/537.36" version="26.2.13">
  <diagram name="Page-1" id="3mhavHjRwUIhCfD9kLPz">
    <mxGraphModel dx="1428" dy="749" grid="1" gridSize="10" guides="1" tooltips="1" connect="1" arrows="1" fold="1" page="1" pageScale="1" pageWidth="827" pageHeight="1169" math="0" shadow="0">
      <root>
        <mxCell id="0" />
        <mxCell id="1" parent="0" />
        <mxCell id="yqHAX6XaGLWDxhdKcxRz-11" style="edgeStyle=orthogonalEdgeStyle;rounded=0;orthogonalLoop=1;jettySize=auto;html=1;entryX=0;entryY=0.5;entryDx=0;entryDy=0;" parent="1" source="0ezP59gke7yecXBHXXqj-3" target="0ezP59gke7yecXBHXXqj-5" edge="1">
          <mxGeometry relative="1" as="geometry" />
        </mxCell>
        <mxCell id="yqHAX6XaGLWDxhdKcxRz-12" style="edgeStyle=orthogonalEdgeStyle;rounded=0;orthogonalLoop=1;jettySize=auto;html=1;entryX=0;entryY=0.5;entryDx=0;entryDy=0;" parent="1" source="0ezP59gke7yecXBHXXqj-3" target="0ezP59gke7yecXBHXXqj-8" edge="1">
          <mxGeometry relative="1" as="geometry" />
        </mxCell>
        <mxCell id="0ezP59gke7yecXBHXXqj-3" value="User" style="shape=umlActor;verticalLabelPosition=bottom;verticalAlign=top;html=1;outlineConnect=0;" parent="1" vertex="1">
          <mxGeometry x="40" y="400" width="30" height="60" as="geometry" />
        </mxCell>
        <mxCell id="0ezP59gke7yecXBHXXqj-5" value="" style="rounded=0;whiteSpace=wrap;html=1;dashed=1;fillColor=#f5f5f5;fontColor=#333333;strokeColor=#666666;" parent="1" vertex="1">
          <mxGeometry x="120" y="247.5" width="120" height="100" as="geometry" />
        </mxCell>
        <mxCell id="FkycOWQq0roFS4aUgxG2-39" style="edgeStyle=orthogonalEdgeStyle;rounded=0;orthogonalLoop=1;jettySize=auto;html=1;entryX=0.5;entryY=1;entryDx=0;entryDy=0;fillColor=#ffe6cc;strokeColor=#d79b00;" edge="1" parent="1" source="0ezP59gke7yecXBHXXqj-7" target="FkycOWQq0roFS4aUgxG2-35">
          <mxGeometry relative="1" as="geometry" />
        </mxCell>
        <mxCell id="0ezP59gke7yecXBHXXqj-7" value="Nginx" style="rounded=0;whiteSpace=wrap;html=1;fillColor=#ffe6cc;strokeColor=#d79b00;" parent="1" vertex="1">
          <mxGeometry x="127.5" y="272.5" width="105" height="50" as="geometry" />
        </mxCell>
        <mxCell id="0ezP59gke7yecXBHXXqj-8" value="" style="rounded=0;whiteSpace=wrap;html=1;dashed=1;fillColor=#f5f5f5;fontColor=#333333;strokeColor=#666666;" parent="1" vertex="1">
          <mxGeometry x="120" y="550" width="120" height="100" as="geometry" />
        </mxCell>
        <mxCell id="0ezP59gke7yecXBHXXqj-10" value="Web API" style="rounded=0;whiteSpace=wrap;html=1;fillColor=#f8cecc;strokeColor=#b85450;" parent="1" vertex="1">
          <mxGeometry x="127.5" y="575" width="105" height="50" as="geometry" />
        </mxCell>
        <mxCell id="0ezP59gke7yecXBHXXqj-11" value="" style="rounded=0;whiteSpace=wrap;html=1;dashed=1;fillColor=#f5f5f5;fontColor=#333333;strokeColor=#666666;" parent="1" vertex="1">
          <mxGeometry x="447.5" y="570" width="130" height="120" as="geometry" />
        </mxCell>
        <mxCell id="FkycOWQq0roFS4aUgxG2-24" style="edgeStyle=orthogonalEdgeStyle;rounded=0;orthogonalLoop=1;jettySize=auto;html=1;entryX=1;entryY=0.5;entryDx=0;entryDy=0;fillColor=#e1d5e7;strokeColor=#9673a6;" edge="1" parent="1" source="0ezP59gke7yecXBHXXqj-14" target="FkycOWQq0roFS4aUgxG2-20">
          <mxGeometry relative="1" as="geometry">
            <Array as="points">
              <mxPoint x="513" y="580" />
              <mxPoint x="410" y="580" />
              <mxPoint x="410" y="435" />
            </Array>
          </mxGeometry>
        </mxCell>
        <mxCell id="FkycOWQq0roFS4aUgxG2-31" style="edgeStyle=orthogonalEdgeStyle;rounded=0;orthogonalLoop=1;jettySize=auto;html=1;entryX=0.5;entryY=1;entryDx=0;entryDy=0;fillColor=#d5e8d4;strokeColor=#82b366;" edge="1" parent="1" source="0ezP59gke7yecXBHXXqj-14" target="0ezP59gke7yecXBHXXqj-30">
          <mxGeometry relative="1" as="geometry">
            <Array as="points">
              <mxPoint x="430" y="630" />
              <mxPoint x="430" y="500" />
              <mxPoint x="533" y="500" />
            </Array>
          </mxGeometry>
        </mxCell>
        <mxCell id="0ezP59gke7yecXBHXXqj-14" value="Compute-intesive&amp;nbsp; service" style="shape=cube;whiteSpace=wrap;html=1;boundedLbl=1;backgroundOutline=1;darkOpacity=0.05;darkOpacity2=0.1;fillColor=#d5e8d4;strokeColor=#82b366;" parent="1" vertex="1">
          <mxGeometry x="460" y="590" width="105" height="80" as="geometry" />
        </mxCell>
        <mxCell id="0ezP59gke7yecXBHXXqj-15" value="" style="rounded=0;whiteSpace=wrap;html=1;dashed=1;fillColor=#f5f5f5;fontColor=#333333;strokeColor=#666666;" parent="1" vertex="1">
          <mxGeometry x="618.5" y="570" width="130" height="120" as="geometry" />
        </mxCell>
        <mxCell id="FkycOWQq0roFS4aUgxG2-27" style="edgeStyle=orthogonalEdgeStyle;rounded=0;orthogonalLoop=1;jettySize=auto;html=1;entryX=1;entryY=0.5;entryDx=0;entryDy=0;fillColor=#e1d5e7;strokeColor=#9673a6;" edge="1" parent="1" source="0ezP59gke7yecXBHXXqj-17" target="FkycOWQq0roFS4aUgxG2-20">
          <mxGeometry relative="1" as="geometry">
            <Array as="points">
              <mxPoint x="650" y="520" />
              <mxPoint x="410" y="520" />
              <mxPoint x="410" y="435" />
            </Array>
          </mxGeometry>
        </mxCell>
        <mxCell id="FkycOWQq0roFS4aUgxG2-29" style="edgeStyle=orthogonalEdgeStyle;rounded=0;orthogonalLoop=1;jettySize=auto;html=1;entryX=1;entryY=0.5;entryDx=0;entryDy=0;fillColor=#d5e8d4;strokeColor=#82b366;" edge="1" parent="1" source="0ezP59gke7yecXBHXXqj-17" target="0ezP59gke7yecXBHXXqj-30">
          <mxGeometry relative="1" as="geometry">
            <Array as="points">
              <mxPoint x="770" y="630" />
              <mxPoint x="770" y="408" />
              <mxPoint x="613" y="408" />
            </Array>
          </mxGeometry>
        </mxCell>
        <mxCell id="0ezP59gke7yecXBHXXqj-17" value="Compute-intesive&amp;nbsp; service" style="shape=cube;whiteSpace=wrap;html=1;boundedLbl=1;backgroundOutline=1;darkOpacity=0.05;darkOpacity2=0.1;fillColor=#d5e8d4;strokeColor=#82b366;" parent="1" vertex="1">
          <mxGeometry x="631" y="590" width="105" height="80" as="geometry" />
        </mxCell>
        <mxCell id="0ezP59gke7yecXBHXXqj-24" value="" style="rounded=0;whiteSpace=wrap;html=1;dashed=1;fillColor=#f5f5f5;fontColor=#333333;strokeColor=#666666;" parent="1" vertex="1">
          <mxGeometry x="537.5" y="140" width="130" height="120" as="geometry" />
        </mxCell>
        <mxCell id="FkycOWQq0roFS4aUgxG2-26" style="edgeStyle=orthogonalEdgeStyle;rounded=0;orthogonalLoop=1;jettySize=auto;html=1;entryX=1;entryY=0.5;entryDx=0;entryDy=0;fillColor=#e1d5e7;strokeColor=#9673a6;" edge="1" parent="1" source="0ezP59gke7yecXBHXXqj-26" target="FkycOWQq0roFS4aUgxG2-20">
          <mxGeometry relative="1" as="geometry">
            <Array as="points">
              <mxPoint x="603" y="280" />
              <mxPoint x="390" y="280" />
              <mxPoint x="390" y="435" />
            </Array>
          </mxGeometry>
        </mxCell>
        <mxCell id="FkycOWQq0roFS4aUgxG2-33" style="edgeStyle=orthogonalEdgeStyle;rounded=0;orthogonalLoop=1;jettySize=auto;html=1;entryX=1;entryY=0.5;entryDx=0;entryDy=0;fillColor=#d5e8d4;strokeColor=#82b366;" edge="1" parent="1" source="0ezP59gke7yecXBHXXqj-26" target="0ezP59gke7yecXBHXXqj-30">
          <mxGeometry relative="1" as="geometry">
            <Array as="points">
              <mxPoint x="730" y="200" />
              <mxPoint x="730" y="408" />
            </Array>
          </mxGeometry>
        </mxCell>
        <mxCell id="0ezP59gke7yecXBHXXqj-26" value="Request handling service" style="shape=cube;whiteSpace=wrap;html=1;boundedLbl=1;backgroundOutline=1;darkOpacity=0.05;darkOpacity2=0.1;fillColor=#d5e8d4;strokeColor=#82b366;" parent="1" vertex="1">
          <mxGeometry x="550" y="160" width="105" height="80" as="geometry" />
        </mxCell>
        <mxCell id="0ezP59gke7yecXBHXXqj-27" value="" style="rounded=0;whiteSpace=wrap;html=1;dashed=1;fillColor=#f5f5f5;fontColor=#333333;strokeColor=#666666;" parent="1" vertex="1">
          <mxGeometry x="342.5" y="140" width="130" height="120" as="geometry" />
        </mxCell>
        <mxCell id="FkycOWQq0roFS4aUgxG2-25" style="edgeStyle=orthogonalEdgeStyle;rounded=0;orthogonalLoop=1;jettySize=auto;html=1;entryX=1;entryY=0.5;entryDx=0;entryDy=0;fillColor=#e1d5e7;strokeColor=#9673a6;" edge="1" parent="1" source="0ezP59gke7yecXBHXXqj-29" target="FkycOWQq0roFS4aUgxG2-20">
          <mxGeometry relative="1" as="geometry">
            <Array as="points">
              <mxPoint x="390" y="435" />
            </Array>
          </mxGeometry>
        </mxCell>
        <mxCell id="FkycOWQq0roFS4aUgxG2-34" style="edgeStyle=orthogonalEdgeStyle;rounded=0;orthogonalLoop=1;jettySize=auto;html=1;entryX=0;entryY=0.5;entryDx=0;entryDy=0;fillColor=#d5e8d4;strokeColor=#82b366;" edge="1" parent="1" source="0ezP59gke7yecXBHXXqj-29" target="0ezP59gke7yecXBHXXqj-30">
          <mxGeometry relative="1" as="geometry" />
        </mxCell>
        <mxCell id="0ezP59gke7yecXBHXXqj-29" value="Request handling service" style="shape=cube;whiteSpace=wrap;html=1;boundedLbl=1;backgroundOutline=1;darkOpacity=0.05;darkOpacity2=0.1;fillColor=#d5e8d4;strokeColor=#82b366;" parent="1" vertex="1">
          <mxGeometry x="355" y="160" width="105" height="80" as="geometry" />
        </mxCell>
        <mxCell id="0ezP59gke7yecXBHXXqj-30" value="" style="rounded=0;whiteSpace=wrap;html=1;dashed=1;fillColor=#f5f5f5;fontColor=#333333;strokeColor=#666666;" parent="1" vertex="1">
          <mxGeometry x="472.5" y="355" width="120" height="105" as="geometry" />
        </mxCell>
        <mxCell id="0ezP59gke7yecXBHXXqj-33" value="DB" style="shape=cylinder3;whiteSpace=wrap;html=1;boundedLbl=1;backgroundOutline=1;size=15;fillColor=#fff2cc;strokeColor=#d6b656;" parent="1" vertex="1">
          <mxGeometry x="500.5" y="375" width="60" height="80" as="geometry" />
        </mxCell>
        <mxCell id="yqHAX6XaGLWDxhdKcxRz-14" value="" style="rounded=0;whiteSpace=wrap;html=1;dashed=1;fillColor=#f5f5f5;fontColor=#333333;strokeColor=#666666;" parent="1" vertex="1">
          <mxGeometry x="280" y="550.5" width="107.5" height="95" as="geometry" />
        </mxCell>
        <mxCell id="yqHAX6XaGLWDxhdKcxRz-18" style="edgeStyle=orthogonalEdgeStyle;rounded=0;orthogonalLoop=1;jettySize=auto;html=1;entryX=0;entryY=0.75;entryDx=0;entryDy=0;fillColor=#ffe6cc;strokeColor=#d79b00;" parent="1" source="yqHAX6XaGLWDxhdKcxRz-16" target="0ezP59gke7yecXBHXXqj-11" edge="1">
          <mxGeometry relative="1" as="geometry" />
        </mxCell>
        <mxCell id="yqHAX6XaGLWDxhdKcxRz-19" style="edgeStyle=orthogonalEdgeStyle;rounded=0;orthogonalLoop=1;jettySize=auto;html=1;entryX=0;entryY=0.5;entryDx=0;entryDy=0;fillColor=#ffe6cc;strokeColor=#d79b00;" parent="1" source="yqHAX6XaGLWDxhdKcxRz-16" target="0ezP59gke7yecXBHXXqj-15" edge="1">
          <mxGeometry relative="1" as="geometry">
            <Array as="points">
              <mxPoint x="334" y="530" />
              <mxPoint x="590" y="530" />
              <mxPoint x="590" y="630" />
            </Array>
          </mxGeometry>
        </mxCell>
        <mxCell id="yqHAX6XaGLWDxhdKcxRz-16" value="RabbitMQ" style="rounded=0;whiteSpace=wrap;html=1;fillColor=#ffe6cc;strokeColor=#d79b00;" parent="1" vertex="1">
          <mxGeometry x="291.25" y="578" width="85" height="40" as="geometry" />
        </mxCell>
        <mxCell id="yqHAX6XaGLWDxhdKcxRz-23" style="edgeStyle=orthogonalEdgeStyle;rounded=0;orthogonalLoop=1;jettySize=auto;html=1;entryX=0.524;entryY=1;entryDx=0;entryDy=0;entryPerimeter=0;fillColor=#ffe6cc;strokeColor=#d79b00;" parent="1" source="0ezP59gke7yecXBHXXqj-7" target="0ezP59gke7yecXBHXXqj-29" edge="1">
          <mxGeometry relative="1" as="geometry" />
        </mxCell>
        <mxCell id="yqHAX6XaGLWDxhdKcxRz-24" style="edgeStyle=orthogonalEdgeStyle;rounded=0;orthogonalLoop=1;jettySize=auto;html=1;entryX=0;entryY=0;entryDx=62.5;entryDy=80;entryPerimeter=0;fillColor=#ffe6cc;strokeColor=#d79b00;" parent="1" source="0ezP59gke7yecXBHXXqj-7" target="0ezP59gke7yecXBHXXqj-26" edge="1">
          <mxGeometry relative="1" as="geometry">
            <Array as="points">
              <mxPoint x="215" y="310" />
              <mxPoint x="613" y="310" />
            </Array>
          </mxGeometry>
        </mxCell>
        <mxCell id="FkycOWQq0roFS4aUgxG2-23" style="edgeStyle=orthogonalEdgeStyle;rounded=0;orthogonalLoop=1;jettySize=auto;html=1;entryX=0;entryY=0.5;entryDx=0;entryDy=0;fillColor=#dae8fc;strokeColor=#6c8ebf;" edge="1" parent="1" source="FkycOWQq0roFS4aUgxG2-1" target="FkycOWQq0roFS4aUgxG2-20">
          <mxGeometry relative="1" as="geometry" />
        </mxCell>
        <mxCell id="FkycOWQq0roFS4aUgxG2-1" value="" style="rounded=0;whiteSpace=wrap;html=1;dashed=1;fillColor=#f5f5f5;fontColor=#333333;strokeColor=#666666;" vertex="1" parent="1">
          <mxGeometry x="132.5" y="397.5" width="107.5" height="75" as="geometry" />
        </mxCell>
        <mxCell id="FkycOWQq0roFS4aUgxG2-2" value="&lt;font style=&quot;font-size: 11px;&quot;&gt;Docker Container&lt;/font&gt;" style="text;html=1;align=center;verticalAlign=middle;whiteSpace=wrap;rounded=0;" vertex="1" parent="1">
          <mxGeometry x="155" y="370" width="65" height="27.5" as="geometry" />
        </mxCell>
        <mxCell id="FkycOWQq0roFS4aUgxG2-3" value="Grafana" style="rounded=0;whiteSpace=wrap;html=1;fillColor=#dae8fc;strokeColor=#6c8ebf;" vertex="1" parent="1">
          <mxGeometry x="142.5" y="412.5" width="90" height="40" as="geometry" />
        </mxCell>
        <mxCell id="FkycOWQq0roFS4aUgxG2-4" value="&lt;font style=&quot;font-size: 11px;&quot;&gt;Docker Container&lt;/font&gt;" style="text;html=1;align=center;verticalAlign=middle;whiteSpace=wrap;rounded=0;" vertex="1" parent="1">
          <mxGeometry x="175" y="220" width="65" height="27.5" as="geometry" />
        </mxCell>
        <mxCell id="FkycOWQq0roFS4aUgxG2-5" value="&lt;font style=&quot;font-size: 11px;&quot;&gt;Docker Container&lt;/font&gt;" style="text;html=1;align=center;verticalAlign=middle;whiteSpace=wrap;rounded=0;" vertex="1" parent="1">
          <mxGeometry x="375" y="112.5" width="65" height="27.5" as="geometry" />
        </mxCell>
        <mxCell id="FkycOWQq0roFS4aUgxG2-6" value="&lt;font style=&quot;font-size: 11px;&quot;&gt;Docker Container&lt;/font&gt;" style="text;html=1;align=center;verticalAlign=middle;whiteSpace=wrap;rounded=0;" vertex="1" parent="1">
          <mxGeometry x="570" y="112.5" width="65" height="27.5" as="geometry" />
        </mxCell>
        <mxCell id="FkycOWQq0roFS4aUgxG2-7" value="&lt;font style=&quot;font-size: 11px;&quot;&gt;Docker Container&lt;/font&gt;" style="text;html=1;align=center;verticalAlign=middle;whiteSpace=wrap;rounded=0;" vertex="1" parent="1">
          <mxGeometry x="500" y="327.5" width="65" height="27.5" as="geometry" />
        </mxCell>
        <mxCell id="FkycOWQq0roFS4aUgxG2-8" value="&lt;font style=&quot;font-size: 11px;&quot;&gt;Docker Container&lt;/font&gt;" style="text;html=1;align=center;verticalAlign=middle;whiteSpace=wrap;rounded=0;" vertex="1" parent="1">
          <mxGeometry x="650" y="542.5" width="65" height="27.5" as="geometry" />
        </mxCell>
        <mxCell id="FkycOWQq0roFS4aUgxG2-9" value="&lt;font style=&quot;font-size: 11px;&quot;&gt;Docker Container&lt;/font&gt;" style="text;html=1;align=center;verticalAlign=middle;whiteSpace=wrap;rounded=0;" vertex="1" parent="1">
          <mxGeometry x="495" y="542.5" width="65" height="27.5" as="geometry" />
        </mxCell>
        <mxCell id="FkycOWQq0roFS4aUgxG2-10" value="&lt;font style=&quot;font-size: 11px;&quot;&gt;Docker Container&lt;/font&gt;" style="text;html=1;align=center;verticalAlign=middle;whiteSpace=wrap;rounded=0;" vertex="1" parent="1">
          <mxGeometry x="150" y="522.5" width="65" height="27.5" as="geometry" />
        </mxCell>
        <mxCell id="FkycOWQq0roFS4aUgxG2-11" value="&lt;font style=&quot;font-size: 11px;&quot;&gt;Docker Container&lt;/font&gt;" style="text;html=1;align=center;verticalAlign=middle;whiteSpace=wrap;rounded=0;" vertex="1" parent="1">
          <mxGeometry x="301.25" y="523" width="65" height="27.5" as="geometry" />
        </mxCell>
        <mxCell id="FkycOWQq0roFS4aUgxG2-15" style="edgeStyle=orthogonalEdgeStyle;rounded=0;orthogonalLoop=1;jettySize=auto;html=1;entryX=-0.009;entryY=0.374;entryDx=0;entryDy=0;entryPerimeter=0;fillColor=#f8cecc;strokeColor=#b85450;" edge="1" parent="1" source="0ezP59gke7yecXBHXXqj-10" target="yqHAX6XaGLWDxhdKcxRz-14">
          <mxGeometry relative="1" as="geometry" />
        </mxCell>
        <mxCell id="FkycOWQq0roFS4aUgxG2-16" style="edgeStyle=orthogonalEdgeStyle;rounded=0;orthogonalLoop=1;jettySize=auto;html=1;entryX=0.005;entryY=0.62;entryDx=0;entryDy=0;entryPerimeter=0;" edge="1" parent="1" source="0ezP59gke7yecXBHXXqj-3" target="FkycOWQq0roFS4aUgxG2-1">
          <mxGeometry relative="1" as="geometry" />
        </mxCell>
        <mxCell id="FkycOWQq0roFS4aUgxG2-20" value="" style="rounded=0;whiteSpace=wrap;html=1;dashed=1;fillColor=#f5f5f5;fontColor=#333333;strokeColor=#666666;" vertex="1" parent="1">
          <mxGeometry x="268.75" y="397.5" width="107.5" height="75" as="geometry" />
        </mxCell>
        <mxCell id="FkycOWQq0roFS4aUgxG2-21" value="&lt;font style=&quot;font-size: 11px;&quot;&gt;Docker Container&lt;/font&gt;" style="text;html=1;align=center;verticalAlign=middle;whiteSpace=wrap;rounded=0;" vertex="1" parent="1">
          <mxGeometry x="291.25" y="370" width="65" height="27.5" as="geometry" />
        </mxCell>
        <mxCell id="FkycOWQq0roFS4aUgxG2-22" value="Prometheus" style="rounded=0;whiteSpace=wrap;html=1;fillColor=#e1d5e7;strokeColor=#9673a6;" vertex="1" parent="1">
          <mxGeometry x="278.75" y="412.5" width="90" height="40" as="geometry" />
        </mxCell>
        <mxCell id="FkycOWQq0roFS4aUgxG2-35" value="" style="rounded=0;whiteSpace=wrap;html=1;dashed=1;fillColor=#f5f5f5;fontColor=#333333;strokeColor=#666666;" vertex="1" parent="1">
          <mxGeometry x="126.25" y="117.5" width="107.5" height="75" as="geometry" />
        </mxCell>
        <mxCell id="FkycOWQq0roFS4aUgxG2-36" value="&lt;font style=&quot;font-size: 11px;&quot;&gt;Docker Container&lt;/font&gt;" style="text;html=1;align=center;verticalAlign=middle;whiteSpace=wrap;rounded=0;" vertex="1" parent="1">
          <mxGeometry x="148.75" y="90" width="65" height="27.5" as="geometry" />
        </mxCell>
        <mxCell id="FkycOWQq0roFS4aUgxG2-37" value="Service Discovery" style="rounded=0;whiteSpace=wrap;html=1;fillColor=#f5f5f5;strokeColor=#666666;fontColor=#333333;" vertex="1" parent="1">
          <mxGeometry x="136.25" y="132.5" width="90" height="40" as="geometry" />
        </mxCell>
      </root>
    </mxGraphModel>
  </diagram>
</mxfile>
